<?xml version="1.0" standalone="no"?>
<!DOCTYPE svg PUBLIC "-//W3C//DTD SVG 20010904//EN"
 "http://www.w3.org/TR/2001/REC-SVG-20010904/DTD/svg10.dtd">
<svg version="1.0" xmlns="http://www.w3.org/2000/svg"
 width="3300.000000pt" height="2550.000000pt" viewBox="0 0 3300.000000 2550.000000"
 preserveAspectRatio="xMidYMid meet">

<g transform="translate(0.000000,2550.000000) scale(0.100000,-0.100000)"
fill="#000000" stroke="none">
<path d="M16490 21389 c-1834 -65 -3476 -320 -4960 -769 -2272 -687 -4016
-1796 -4761 -3025 -436 -720 -494 -1343 -176 -1878 198 -332 614 -693 1042
-903 165 -80 251 -99 465 -98 192 0 259 12 431 74 155 56 220 102 453 324 362
344 632 570 1046 878 514 382 846 584 1320 802 1354 623 3129 1054 4900 1190
389 30 654 40 1105 40 837 0 1500 -60 2200 -199 919 -182 1394 -406 1485 -702
23 -74 25 -110 9 -185 -65 -316 -523 -690 -1349 -1102 -660 -329 -1447 -633
-2070 -800 -409 -109 -1049 -316 -1506 -486 -1034 -385 -1913 -823 -2517
-1253 -222 -159 -372 -283 -546 -452 -431 -420 -624 -775 -686 -1264 -21 -167
-16 -522 9 -671 64 -370 204 -699 415 -975 68 -89 254 -278 351 -355 306 -244
703 -417 1165 -509 329 -65 598 -86 1020 -78 688 13 1500 75 3565 272 2556
243 3502 307 4365 292 594 -10 938 -52 1204 -146 387 -136 504 -346 341 -615
-54 -88 -161 -208 -273 -303 -109 -94 -133 -112 -562 -423 -1013 -734 -1666
-1300 -1804 -1564 -36 -67 -39 -104 -12 -137 45 -55 256 -28 506 66 695 260
1618 803 2565 1508 442 329 654 522 780 711 203 303 288 634 235 913 -135 714
-1000 1219 -2305 1348 -332 32 -549 36 -1545 25 -3338 -35 -4780 -54 -5325
-70 -204 -5 -342 -5 -390 1 -135 18 -335 95 -405 157 -76 65 -86 136 -33 217
171 258 933 548 4429 1684 2039 663 2290 753 2804 1006 522 257 908 542 1193
880 259 308 429 690 497 1120 23 139 31 509 16 687 -39 455 -184 1039 -381
1533 -271 679 -725 1254 -1374 1737 -1129 843 -2846 1349 -5006 1478 -504 30
-1389 39 -1930 19z"/>
</g>
</svg>
